<?xml version="1.0" encoding="utf-8"?>
<!-- Generator: Adobe Illustrator 15.0.2, SVG Export Plug-In . SVG Version: 6.00 Build 0)  -->
<!DOCTYPE svg PUBLIC "-//W3C//DTD SVG 1.1//EN" "http://www.w3.org/Graphics/SVG/1.1/DTD/svg11.dtd">
<svg version="1.1" id="Layer_1" xmlns="http://www.w3.org/2000/svg" xmlns:xlink="http://www.w3.org/1999/xlink" x="0px" y="0px"
	 width="32px" height="16px" viewBox="0 0 32 16" enable-background="new 0 0 32 16" xml:space="preserve">
<g id="woman_1_">
	<path id="woman" fill="#F18876" d="M31.23,13.693c-0.506-0.287-3.324-1.174-4.688-1.856c0,0,0-1.146,0-1.569
		c1.364-0.099,2.533-0.894,2.987-1.386c0.455-0.494-0.432-0.968-1.104-1.752c-0.67-0.784-0.8-1.451-0.8-3.021
		c0-1.467-1.21-3.084-3.128-3.109c-1.919,0.024-3.129,1.642-3.129,3.109c0,1.569-0.129,2.236-0.801,3.021
		c-0.674,0.784-1.561,1.259-1.105,1.752c0.455,0.494,1.625,1.287,2.988,1.386c0,0.424,0,1.569,0,1.569
		c-1.363,0.685-4.186,1.569-4.688,1.856c-0.466,0.264-0.767,0.591-0.767,1.127v0.837c0,0.188,0.153,0.342,0.34,0.342H31.66
		C31.846,16,32,15.848,32,15.658v-0.836C31.999,14.285,31.695,13.957,31.23,13.693z"/>
</g>
<g id="old_x5F_man">
	<path fill="#3456A3" d="M14.656,12.783c-0.428-0.243-3.226-1.898-4.664-2.48V8.635c0.416-0.304,0.667-0.771,0.667-1.481V6.055
		c0.793-0.303,1.318-0.658,1.318-0.794c0-0.274-0.162-0.585-0.359-0.585h-0.75L9.894,0.229c0.023-0.215-0.11-0.27-0.298-0.201
		L8.001,0.531C7.814,0.601,7.507,0.597,7.32,0.528L5.726,0.073c-0.188-0.07-0.322,0.002-0.299,0.218L4.456,4.675H3.704
		c-0.198,0-0.359,0.312-0.359,0.585c0,0.136,0.526,0.491,1.318,0.794c0,0.279,0,0.631,0,1.099c0,0.716,0.251,1.185,0.667,1.488v1.66
		c-1.354,0.581-4.234,2.236-4.664,2.481C0.133,13.085,0,13.374,0,14.074c0,0.414,0,1.593,0,1.593C0,15.852,0.149,16,0.333,16H14.99
		c0.183,0,0.333-0.148,0.333-0.333c0,0,0-1.179,0-1.593C15.322,13.374,15.189,13.086,14.656,12.783z"/>
</g>
</svg>
